<svg xmlns="http://www.w3.org/2000/svg" xmlns:xlink="http://www.w3.org/1999/xlink" width="500" zoomAndPan="magnify" viewBox="0 0 375 374.999991" height="500" preserveAspectRatio="xMidYMid meet" version="1.0"><defs><g/><clipPath id="8a2bf70a79"><path d="M 45.4375 45.4375 L 329.558594 45.4375 L 329.558594 329.558594 L 45.4375 329.558594 Z M 45.4375 45.4375 " clip-rule="nonzero"/></clipPath><clipPath id="e0e6939799"><path d="M 187.496094 45.4375 C 109.039062 45.4375 45.4375 109.039062 45.4375 187.496094 C 45.4375 265.957031 109.039062 329.558594 187.496094 329.558594 C 265.957031 329.558594 329.558594 265.957031 329.558594 187.496094 C 329.558594 109.039062 265.957031 45.4375 187.496094 45.4375 Z M 187.496094 45.4375 " clip-rule="nonzero"/></clipPath><clipPath id="dabff0c7aa"><path d="M 106.039062 100.253906 L 268.789062 100.253906 L 268.789062 245 L 106.039062 245 Z M 106.039062 100.253906 " clip-rule="nonzero"/></clipPath><clipPath id="4e91f5abbc"><path d="M 168 254 L 210 254 L 210 289.851562 L 168 289.851562 Z M 168 254 " clip-rule="nonzero"/></clipPath></defs><g clip-path="url(#8a2bf70a79)"><g clip-path="url(#e0e6939799)"><path stroke-linecap="butt" transform="matrix(0.75, 0, 0, 0.75, 45.437301, 45.437296)" fill="none" stroke-linejoin="miter" d="M 189.411736 0.000271712 C 84.802355 0.000271712 0.000265712 84.802361 0.000265712 189.411742 C 0.000265712 294.026333 84.802355 378.828422 189.411736 378.828422 C 294.026327 378.828422 378.828416 294.026333 378.828416 189.411742 C 378.828416 84.802361 294.026327 0.000271712 189.411736 0.000271712 Z M 189.411736 0.000271712 " stroke="#98aa71" stroke-width="10" stroke-opacity="1" stroke-miterlimit="4"/></g></g><path fill="#faf8f3" d="M 65.730469 103.484375 C 65.246094 103.101562 64.804688 102.675781 64.402344 102.207031 C 64 101.738281 63.644531 101.234375 63.339844 100.695312 C 63.035156 100.160156 62.78125 99.597656 62.585938 99.011719 C 62.390625 98.425781 62.25 97.824219 62.171875 97.210938 C 62.089844 96.601562 62.066406 95.984375 62.105469 95.367188 C 62.144531 94.75 62.242188 94.144531 62.394531 93.546875 C 62.550781 92.945312 62.761719 92.367188 63.03125 91.8125 C 63.296875 91.253906 63.613281 90.726562 63.984375 90.230469 C 65.875 87.984375 67.824219 85.789062 69.832031 83.648438 C 71.839844 81.507812 73.90625 79.421875 76.03125 77.394531 C 78.152344 75.363281 80.332031 73.394531 82.5625 71.484375 C 84.792969 69.578125 87.074219 67.730469 89.402344 65.945312 C 91.734375 64.160156 94.113281 62.4375 96.539062 60.785156 C 98.964844 59.128906 101.433594 57.539062 103.945312 56.019531 C 106.457031 54.5 109.007812 53.046875 111.601562 51.667969 C 114.191406 50.285156 116.816406 48.976562 119.480469 47.738281 C 122.144531 46.5 124.839844 45.335938 127.5625 44.246094 C 130.289062 43.15625 133.042969 42.140625 135.828125 41.199219 C 138.609375 40.261719 141.414062 39.394531 144.242188 38.609375 C 147.070312 37.820312 149.917969 37.113281 152.785156 36.480469 C 155.65625 35.847656 158.535156 35.296875 161.433594 34.820312 C 164.332031 34.347656 167.242188 33.953125 170.160156 33.636719 C 173.078125 33.320312 176.003906 33.085938 178.9375 32.929688 C 181.871094 32.773438 184.804688 32.699219 187.742188 32.703125 C 190.675781 32.707031 193.609375 32.792969 196.542969 32.957031 C 199.472656 33.121094 202.398438 33.367188 205.316406 33.691406 C 208.234375 34.015625 211.144531 34.417969 214.039062 34.902344 C 216.9375 35.386719 219.816406 35.945312 222.683594 36.585938 C 225.546875 37.226562 228.394531 37.945312 231.222656 38.742188 C 234.046875 39.535156 236.851562 40.410156 239.628906 41.359375 C 242.40625 42.304688 245.160156 43.332031 247.882812 44.429688 C 250.605469 45.527344 253.296875 46.699219 255.953125 47.945312 C 258.613281 49.191406 261.234375 50.507812 263.824219 51.898438 C 266.410156 53.289062 268.957031 54.746094 271.464844 56.273438 C 273.972656 57.800781 276.4375 59.398438 278.855469 61.058594 C 281.277344 62.722656 283.648438 64.449219 285.976562 66.242188 C 288.300781 68.035156 290.578125 69.890625 292.800781 71.804688 C 295.027344 73.722656 297.199219 75.695312 299.3125 77.730469 C 301.429688 79.765625 303.492188 81.859375 305.492188 84.003906 C 307.496094 86.152344 309.4375 88.351562 311.320312 90.605469 C 311.6875 91.105469 312.003906 91.632812 312.269531 92.191406 C 312.535156 92.75 312.746094 93.328125 312.898438 93.925781 C 313.054688 94.523438 313.148438 95.132812 313.183594 95.75 C 313.21875 96.367188 313.195312 96.980469 313.113281 97.59375 C 313.03125 98.207031 312.890625 98.804688 312.691406 99.390625 C 312.496094 99.976562 312.242188 100.539062 311.933594 101.074219 C 311.628906 101.609375 311.273438 102.113281 310.867188 102.582031 C 310.464844 103.050781 310.019531 103.472656 309.535156 103.855469 L 294.097656 115.265625 C 293.59375 115.671875 293.054688 116.019531 292.480469 116.316406 C 291.90625 116.609375 291.304688 116.84375 290.683594 117.019531 C 290.0625 117.191406 289.429688 117.304688 288.785156 117.347656 C 288.140625 117.394531 287.5 117.378906 286.859375 117.292969 C 286.21875 117.210938 285.589844 117.0625 284.980469 116.855469 C 284.371094 116.644531 283.785156 116.375 283.230469 116.050781 C 282.671875 115.722656 282.152344 115.34375 281.675781 114.910156 C 281.195312 114.476562 280.761719 114.003906 280.378906 113.484375 C 278.941406 111.828125 277.464844 110.214844 275.941406 108.636719 C 274.421875 107.0625 272.859375 105.53125 271.257812 104.039062 C 269.652344 102.546875 268.011719 101.097656 266.328125 99.695312 C 264.648438 98.289062 262.933594 96.929688 261.179688 95.617188 C 259.425781 94.308594 257.640625 93.042969 255.816406 91.824219 C 253.996094 90.609375 252.144531 89.441406 250.261719 88.324219 C 248.378906 87.203125 246.46875 86.136719 244.527344 85.121094 C 242.585938 84.105469 240.621094 83.144531 238.628906 82.234375 C 236.636719 81.320312 234.621094 80.464844 232.585938 79.660156 C 230.546875 78.859375 228.488281 78.109375 226.414062 77.417969 C 224.335938 76.722656 222.242188 76.085938 220.128906 75.507812 C 218.019531 74.925781 215.890625 74.398438 213.753906 73.933594 C 211.613281 73.464844 209.460938 73.054688 207.300781 72.703125 C 205.140625 72.347656 202.96875 72.054688 200.792969 71.816406 C 198.617188 71.582031 196.433594 71.402344 194.246094 71.28125 C 192.0625 71.160156 189.871094 71.101562 187.683594 71.097656 C 185.492188 71.09375 183.304688 71.148438 181.117188 71.261719 C 178.929688 71.375 176.746094 71.546875 174.570312 71.777344 C 172.390625 72.007812 170.222656 72.296875 168.058594 72.640625 C 165.894531 72.988281 163.746094 73.390625 161.601562 73.851562 C 159.460938 74.316406 157.335938 74.832031 155.222656 75.40625 C 153.109375 75.980469 151.011719 76.613281 148.933594 77.300781 C 146.851562 77.988281 144.792969 78.730469 142.753906 79.527344 C 140.714844 80.324219 138.695312 81.171875 136.703125 82.078125 C 134.707031 82.984375 132.738281 83.941406 130.796875 84.949219 C 128.851562 85.960938 126.9375 87.019531 125.050781 88.132812 C 123.164062 89.246094 121.308594 90.40625 119.484375 91.617188 C 117.660156 92.828125 115.867188 94.089844 114.113281 95.394531 C 112.355469 96.703125 110.632812 98.054688 108.949219 99.453125 C 107.261719 100.855469 105.617188 102.296875 104.007812 103.785156 C 102.402344 105.269531 100.835938 106.800781 99.308594 108.371094 C 97.78125 109.941406 96.296875 111.550781 94.859375 113.203125 C 94.472656 113.71875 94.039062 114.195312 93.558594 114.625 C 93.078125 115.054688 92.558594 115.433594 92 115.757812 C 91.441406 116.085938 90.855469 116.351562 90.246094 116.558594 C 89.632812 116.765625 89.007812 116.910156 88.367188 116.992188 C 87.726562 117.074219 87.082031 117.089844 86.441406 117.042969 C 85.796875 116.992188 85.164062 116.882812 84.542969 116.707031 C 83.921875 116.527344 83.324219 116.292969 82.75 115.996094 C 82.175781 115.699219 81.636719 115.347656 81.132812 114.941406 Z M 65.730469 103.484375 " fill-opacity="1" fill-rule="nonzero"/><g fill="#98aa71" fill-opacity="1"><g transform="translate(85.435398, 107.348475)"><g><path d="M 5.03125 -9.609375 C 5.300781 -9.890625 5.625 -9.851562 6 -9.5 C 6.375 -9.15625 6.648438 -8.894531 6.828125 -8.71875 C 7.210938 -8.28125 7.28125 -7.867188 7.03125 -7.484375 C 6.21875 -6.296875 5.578125 -5.453125 5.109375 -4.953125 C 3.492188 -3.203125 1.890625 -2.453125 0.296875 -2.703125 C -1.296875 -2.960938 -3.378906 -4.285156 -5.953125 -6.671875 C -7.835938 -8.410156 -9.140625 -9.878906 -9.859375 -11.078125 C -10.585938 -12.285156 -10.859375 -13.394531 -10.671875 -14.40625 C -10.484375 -15.414062 -9.796875 -16.554688 -8.609375 -17.828125 C -7.429688 -19.109375 -6.367188 -19.859375 -5.421875 -20.078125 C -5.222656 -20.117188 -5.066406 -20.082031 -4.953125 -19.96875 C -4.835938 -19.863281 -4.664062 -19.601562 -4.4375 -19.1875 C -4.21875 -18.769531 -4.085938 -18.445312 -4.046875 -18.21875 C -4.015625 -18 -4.046875 -17.835938 -4.140625 -17.734375 C -4.242188 -17.628906 -4.328125 -17.554688 -4.390625 -17.515625 C -5.378906 -16.796875 -6.171875 -16.113281 -6.765625 -15.46875 C -7.359375 -14.832031 -7.390625 -14.09375 -6.859375 -13.25 C -6.335938 -12.40625 -5.285156 -11.25 -3.703125 -9.78125 C -2.128906 -8.320312 -0.992188 -7.34375 -0.296875 -6.84375 C 0.398438 -6.34375 0.972656 -6.09375 1.421875 -6.09375 C 1.878906 -6.09375 2.332031 -6.332031 2.78125 -6.8125 C 3.226562 -7.300781 3.707031 -7.878906 4.21875 -8.546875 C 4.738281 -9.222656 5.007812 -9.578125 5.03125 -9.609375 Z M 5.03125 -9.609375 "/></g></g></g><g fill="#98aa71" fill-opacity="1"><g transform="translate(98.343199, 94.092688)"><g><path d="M 0.09375 -14.1875 C 0.582031 -14.59375 1.007812 -14.578125 1.375 -14.140625 C 1.875 -13.523438 2.175781 -13.078125 2.28125 -12.796875 C 2.394531 -12.523438 2.296875 -12.257812 1.984375 -12 L -1.640625 -9.015625 L 1.59375 -5.0625 L 5.875 -8.578125 C 6.1875 -8.804688 6.441406 -8.910156 6.640625 -8.890625 C 6.835938 -8.878906 7.019531 -8.769531 7.1875 -8.5625 C 7.6875 -7.957031 7.972656 -7.492188 8.046875 -7.171875 C 8.128906 -6.859375 8 -6.5625 7.65625 -6.28125 L 1.140625 -0.9375 L 0.578125 -0.984375 L -10.625 -14.640625 L -4.03125 -20.03125 C -3.488281 -20.457031 -3.054688 -20.476562 -2.734375 -20.09375 C -2.472656 -19.757812 -2.273438 -19.484375 -2.140625 -19.265625 C -2.015625 -19.054688 -1.9375 -18.804688 -1.90625 -18.515625 C -1.882812 -18.234375 -2 -17.988281 -2.25 -17.78125 L -6.40625 -14.375 L -3.484375 -11.25 Z M 0.09375 -14.1875 "/></g></g></g><g fill="#98aa71" fill-opacity="1"><g transform="translate(112.604581, 82.920276)"><g><path d="M 0.625 -1.0625 L -8.203125 -15.546875 C -8.503906 -16.054688 -8.160156 -16.613281 -7.171875 -17.21875 C -6.972656 -17.34375 -6.8125 -17.429688 -6.6875 -17.484375 C -6.5625 -17.546875 -6.375 -17.566406 -6.125 -17.546875 C -5.875 -17.535156 -5.613281 -17.46875 -5.34375 -17.34375 L 3.5625 -10.96875 L -1.78125 -19.46875 C -2.082031 -19.96875 -1.742188 -20.515625 -0.765625 -21.109375 C -0.347656 -21.359375 -0.0390625 -21.476562 0.15625 -21.46875 C 0.363281 -21.46875 0.570312 -21.320312 0.78125 -21.03125 L 4.84375 -15.0625 L 9.953125 -6.640625 C 10.097656 -6.410156 10.195312 -6.253906 10.25 -6.171875 C 10.300781 -5.941406 10.085938 -5.679688 9.609375 -5.390625 C 8.722656 -4.847656 8.035156 -4.773438 7.546875 -5.171875 L -1.65625 -11.234375 L 3.515625 -2.765625 C 3.671875 -2.515625 3.769531 -2.34375 3.8125 -2.25 C 3.863281 -2.019531 3.65625 -1.765625 3.1875 -1.484375 C 1.8125 -0.648438 0.957031 -0.507812 0.625 -1.0625 Z M 0.625 -1.0625 "/></g></g></g><g fill="#98aa71" fill-opacity="1"><g transform="translate(129.576545, 73.196511)"><g><path d="M 3.578125 -2.09375 L -2.234375 -15.578125 L -4.984375 -14.390625 C -5.335938 -14.242188 -5.597656 -14.238281 -5.765625 -14.375 C -5.992188 -14.507812 -6.222656 -14.847656 -6.453125 -15.390625 C -6.804688 -16.222656 -6.734375 -16.75 -6.234375 -16.96875 L 1.78125 -20.421875 C 2.632812 -20.796875 3.160156 -20.75 3.359375 -20.28125 C 3.910156 -18.988281 3.832031 -18.1875 3.125 -17.875 L 0.65625 -16.828125 L 2.796875 -12.4375 L 6.6875 -3.46875 C 6.8125 -3.195312 6.878906 -3.015625 6.890625 -2.921875 C 6.921875 -2.679688 6.679688 -2.453125 6.171875 -2.234375 C 4.679688 -1.597656 3.816406 -1.550781 3.578125 -2.09375 Z M 3.578125 -2.09375 "/></g></g></g><g fill="#98aa71" fill-opacity="1"><g transform="translate(146.094651, 66.508876)"><g><path d="M 0.890625 -0.84375 L -3.75 -17.6875 C -2.238281 -18.375 -0.90625 -18.878906 0.25 -19.203125 C 2.382812 -19.785156 3.96875 -19.785156 5 -19.203125 C 6.039062 -18.617188 6.816406 -17.40625 7.328125 -15.5625 C 8.046875 -12.96875 7.796875 -11.039062 6.578125 -9.78125 L 11.3125 -3.984375 C 11.59375 -3.640625 11.75 -3.410156 11.78125 -3.296875 C 11.8125 -3.179688 11.816406 -3.101562 11.796875 -3.0625 C 11.773438 -2.914062 11.535156 -2.773438 11.078125 -2.640625 C 9.578125 -2.234375 8.613281 -2.289062 8.1875 -2.8125 L 3.859375 -8.171875 C 3.484375 -8.035156 2.914062 -7.863281 2.15625 -7.65625 L 3.796875 -1.703125 C 3.921875 -1.265625 3.953125 -0.976562 3.890625 -0.84375 C 3.835938 -0.707031 3.585938 -0.578125 3.140625 -0.453125 C 1.816406 -0.0859375 1.066406 -0.21875 0.890625 -0.84375 Z M 1.640625 -10.9375 C 2.867188 -11.28125 3.648438 -11.679688 3.984375 -12.140625 C 4.328125 -12.609375 4.332031 -13.453125 4 -14.671875 C 3.789062 -15.410156 3.507812 -15.960938 3.15625 -16.328125 C 2.800781 -16.691406 2.472656 -16.832031 2.171875 -16.75 C 1.078125 -16.445312 0.421875 -16.242188 0.203125 -16.140625 C -0.015625 -16.035156 -0.0859375 -15.847656 -0.015625 -15.578125 L 1.1875 -11.1875 C 1.238281 -10.988281 1.300781 -10.890625 1.375 -10.890625 C 1.457031 -10.898438 1.546875 -10.914062 1.640625 -10.9375 Z M 1.640625 -10.9375 "/></g></g></g><g fill="#98aa71" fill-opacity="1"><g transform="translate(164.737832, 61.812964)"><g><path d="M -0.171875 -8.953125 C -0.472656 -11.472656 -0.503906 -13.429688 -0.265625 -14.828125 C -0.0351562 -16.222656 0.472656 -17.242188 1.265625 -17.890625 C 2.066406 -18.546875 3.285156 -18.972656 4.921875 -19.171875 C 6.554688 -19.367188 7.835938 -19.242188 8.765625 -18.796875 C 9.703125 -18.359375 10.445312 -17.492188 11 -16.203125 C 11.550781 -14.910156 11.976562 -12.992188 12.28125 -10.453125 C 12.695312 -6.960938 12.539062 -4.492188 11.8125 -3.046875 C 11.082031 -1.609375 9.53125 -0.742188 7.15625 -0.453125 C 4.789062 -0.171875 3.082031 -0.644531 2.03125 -1.875 C 0.976562 -3.101562 0.242188 -5.460938 -0.171875 -8.953125 Z M 3.265625 -13.859375 C 3.242188 -13.253906 3.257812 -12.644531 3.3125 -12.03125 C 3.375 -11.414062 3.492188 -10.378906 3.671875 -8.921875 C 3.847656 -7.460938 4.039062 -6.242188 4.25 -5.265625 C 4.457031 -4.296875 4.65625 -3.664062 4.84375 -3.375 C 5.039062 -3.082031 5.273438 -2.953125 5.546875 -2.984375 C 6.941406 -3.148438 7.84375 -3.40625 8.25 -3.75 C 8.394531 -3.882812 8.53125 -4.082031 8.65625 -4.34375 C 8.78125 -4.613281 8.859375 -4.890625 8.890625 -5.171875 C 8.921875 -5.453125 8.925781 -5.859375 8.90625 -6.390625 C 8.894531 -7.078125 8.78125 -8.304688 8.5625 -10.078125 C 8.351562 -11.847656 8.140625 -13.238281 7.921875 -14.25 C 7.710938 -15.269531 7.5 -15.957031 7.28125 -16.3125 C 7.070312 -16.664062 6.832031 -16.828125 6.5625 -16.796875 C 5.9375 -16.722656 5.429688 -16.632812 5.046875 -16.53125 C 4.660156 -16.425781 4.328125 -16.25 4.046875 -16 C 3.765625 -15.75 3.570312 -15.484375 3.46875 -15.203125 C 3.363281 -14.921875 3.296875 -14.472656 3.265625 -13.859375 Z M 3.265625 -13.859375 "/></g></g></g><g fill="#98aa71" fill-opacity="1"><g transform="translate(185.60577, 59.98072)"><g/></g></g><g fill="#98aa71" fill-opacity="1"><g transform="translate(198.629536, 60.242149)"><g><path d="M 9.859375 0.8125 L 11.3125 -9.984375 L 9.390625 -7.3125 L 7 -7.640625 L 5.90625 -10.65625 L 4.46875 0.0625 C 4.425781 0.351562 4.394531 0.546875 4.375 0.640625 C 4.28125 0.859375 3.957031 0.929688 3.40625 0.859375 C 1.8125 0.640625 1.050781 0.234375 1.125 -0.359375 L 3.40625 -17.21875 C 3.476562 -17.820312 4.0625 -18.050781 5.15625 -17.90625 C 6.25 -17.757812 6.875 -17.378906 7.03125 -16.765625 L 8.609375 -10.296875 L 11.953125 -16.109375 C 12.117188 -16.453125 12.300781 -16.664062 12.5 -16.75 C 12.695312 -16.832031 13.03125 -16.84375 13.5 -16.78125 C 14.632812 -16.625 15.171875 -16.238281 15.109375 -15.625 L 14.515625 -8.484375 L 13.234375 1.09375 C 13.171875 1.570312 13.09375 1.863281 13 1.96875 C 12.90625 2.070312 12.613281 2.09375 12.125 2.03125 C 11.632812 1.96875 11.238281 1.894531 10.9375 1.8125 C 10.644531 1.738281 10.382812 1.613281 10.15625 1.4375 C 9.925781 1.269531 9.828125 1.0625 9.859375 0.8125 Z M 9.859375 0.8125 "/></g></g></g><g fill="#98aa71" fill-opacity="1"><g transform="translate(219.18621, 63.601798)"><g><path d="M 10.5 -16.796875 L 9.5625 -17.578125 L 9.890625 -18.828125 L 12.03125 -21.328125 L 13.21875 -21.796875 L 15.3125 -19.71875 Z M 11.34375 -8.140625 C 11.957031 -7.972656 12.1875 -7.613281 12.03125 -7.0625 C 11.8125 -6.289062 11.613281 -5.78125 11.4375 -5.53125 C 11.269531 -5.289062 11 -5.222656 10.625 -5.328125 L 6.09375 -6.609375 L 4.703125 -1.6875 L 10.03125 -0.1875 C 10.382812 -0.0625 10.613281 0.0820312 10.71875 0.25 C 10.820312 0.425781 10.835938 0.644531 10.765625 0.90625 C 10.554688 1.65625 10.335938 2.148438 10.109375 2.390625 C 9.890625 2.640625 9.578125 2.707031 9.171875 2.59375 L 1.03125 0.296875 L 0.78125 -0.1875 L 5.59375 -17.171875 L 13.796875 -14.84375 C 14.453125 -14.644531 14.710938 -14.304688 14.578125 -13.828125 C 14.429688 -13.421875 14.304688 -13.097656 14.203125 -12.859375 C 14.109375 -12.628906 13.953125 -12.421875 13.734375 -12.234375 C 13.515625 -12.054688 13.25 -12.015625 12.9375 -12.109375 L 7.796875 -13.5625 L 6.890625 -9.40625 Z M 11.34375 -8.140625 "/></g></g></g><g fill="#98aa71" fill-opacity="1"><g transform="translate(235.782144, 68.674452)"><g><path d="M 13.25 -14.296875 C 14.84375 -13.585938 15.945312 -12.820312 16.5625 -12 C 17.175781 -11.1875 17.40625 -10.101562 17.25 -8.75 C 17.09375 -7.40625 16.5 -5.5625 15.46875 -3.21875 C 14.03125 0.03125 12.597656 2.113281 11.171875 3.03125 C 9.753906 3.957031 7.910156 3.921875 5.640625 2.921875 C 5.078125 2.671875 3.523438 1.84375 0.984375 0.4375 L 8.28125 -16.046875 C 10.613281 -15.304688 12.269531 -14.722656 13.25 -14.296875 Z M 13.25 -11.171875 C 11.976562 -11.734375 11.171875 -12.054688 10.828125 -12.140625 C 10.492188 -12.234375 10.273438 -12.164062 10.171875 -11.9375 L 5.296875 -0.90625 C 5.222656 -0.75 5.273438 -0.613281 5.453125 -0.5 C 5.640625 -0.382812 6.035156 -0.191406 6.640625 0.078125 C 7.253906 0.347656 7.695312 0.503906 7.96875 0.546875 C 8.25 0.585938 8.53125 0.570312 8.8125 0.5 C 9.101562 0.425781 9.390625 0.164062 9.671875 -0.28125 C 10.234375 -1.164062 10.945312 -2.582031 11.8125 -4.53125 C 13.601562 -8.59375 14.082031 -10.804688 13.25 -11.171875 Z M 13.25 -11.171875 "/></g></g></g><g fill="#98aa71" fill-opacity="1"><g transform="translate(254.093974, 77.446338)"><g><path d="M 2.734375 -1.75 L 3.46875 -1.296875 L 9.828125 -11.78125 L 9.203125 -12.15625 C 8.941406 -12.332031 8.8125 -12.535156 8.8125 -12.765625 C 8.832031 -13.003906 9 -13.378906 9.3125 -13.890625 C 9.769531 -14.648438 10.222656 -14.894531 10.671875 -14.625 L 14.296875 -12.421875 C 14.898438 -12.054688 15.078125 -11.660156 14.828125 -11.234375 C 14.085938 -10.023438 13.476562 -9.566406 13 -9.859375 L 12.5 -10.15625 L 10.21875 -5.953125 L 6.34375 0.453125 L 6.984375 0.828125 C 7.441406 1.140625 7.539062 1.503906 7.28125 1.921875 C 6.507812 3.117188 5.804688 3.523438 5.171875 3.140625 L 1.296875 0.78125 C 1.054688 0.613281 0.9375 0.421875 0.9375 0.203125 C 0.957031 -0.0351562 1.128906 -0.414062 1.453125 -0.9375 C 1.921875 -1.707031 2.347656 -1.976562 2.734375 -1.75 Z M 2.734375 -1.75 "/></g></g></g><g fill="#98aa71" fill-opacity="1"><g transform="translate(266.30659, 85.194622)"><g><path d="M 9.96875 4.28125 C 10.269531 4.519531 10.257812 4.835938 9.9375 5.234375 C 9.625 5.640625 9.390625 5.945312 9.234375 6.15625 C 8.816406 6.550781 8.40625 6.640625 8 6.421875 C 6.757812 5.710938 5.867188 5.144531 5.328125 4.71875 C 3.453125 3.238281 2.582031 1.691406 2.71875 0.078125 C 2.851562 -1.535156 4.007812 -3.71875 6.1875 -6.46875 C 7.769531 -8.476562 9.132812 -9.890625 10.28125 -10.703125 C 11.425781 -11.515625 12.507812 -11.863281 13.53125 -11.75 C 14.550781 -11.644531 15.742188 -11.050781 17.109375 -9.96875 C 18.472656 -8.894531 19.300781 -7.890625 19.59375 -6.953125 C 19.644531 -6.773438 19.617188 -6.625 19.515625 -6.5 C 19.421875 -6.375 19.175781 -6.179688 18.78125 -5.921875 C 18.394531 -5.671875 18.085938 -5.515625 17.859375 -5.453125 C 17.640625 -5.398438 17.472656 -5.421875 17.359375 -5.515625 C 17.242188 -5.609375 17.160156 -5.6875 17.109375 -5.75 C 16.328125 -6.675781 15.59375 -7.410156 14.90625 -7.953125 C 14.226562 -8.492188 13.484375 -8.46875 12.671875 -7.875 C 11.867188 -7.28125 10.800781 -6.140625 9.46875 -4.453125 C 8.132812 -2.765625 7.242188 -1.550781 6.796875 -0.8125 C 6.359375 -0.0820312 6.15625 0.503906 6.1875 0.953125 C 6.226562 1.398438 6.503906 1.828125 7.015625 2.234375 C 7.535156 2.648438 8.148438 3.085938 8.859375 3.546875 C 9.566406 4.015625 9.9375 4.257812 9.96875 4.28125 Z M 9.96875 4.28125 "/></g></g></g><g fill="#98aa71" fill-opacity="1"><g transform="translate(280.522612, 96.928283)"><g><path d="M 7.09375 -5.46875 C 8.945312 -7.207031 10.503906 -8.394531 11.765625 -9.03125 C 13.035156 -9.664062 14.164062 -9.851562 15.15625 -9.59375 C 16.144531 -9.34375 17.203125 -8.617188 18.328125 -7.421875 C 19.460938 -6.222656 20.128906 -5.117188 20.328125 -4.109375 C 20.535156 -3.097656 20.28125 -1.984375 19.5625 -0.765625 C 18.851562 0.441406 17.566406 1.921875 15.703125 3.671875 C 13.148438 6.078125 11.078125 7.414062 9.484375 7.6875 C 7.890625 7.957031 6.273438 7.222656 4.640625 5.484375 C 3.003906 3.742188 2.363281 2.082031 2.71875 0.5 C 3.082031 -1.070312 4.539062 -3.0625 7.09375 -5.46875 Z M 13.09375 -5.609375 C 12.59375 -5.273438 12.109375 -4.898438 11.640625 -4.484375 C 11.179688 -4.066406 10.414062 -3.351562 9.34375 -2.34375 C 8.28125 -1.34375 7.421875 -0.46875 6.765625 0.28125 C 6.109375 1.03125 5.71875 1.570312 5.59375 1.90625 C 5.476562 2.238281 5.515625 2.503906 5.703125 2.703125 C 6.660156 3.722656 7.394531 4.296875 7.90625 4.421875 C 8.09375 4.441406 8.332031 4.421875 8.625 4.359375 C 8.925781 4.304688 9.195312 4.207031 9.4375 4.0625 C 9.675781 3.925781 10.003906 3.691406 10.421875 3.359375 C 10.972656 2.941406 11.894531 2.125 13.1875 0.90625 C 14.488281 -0.3125 15.484375 -1.304688 16.171875 -2.078125 C 16.867188 -2.859375 17.289062 -3.4375 17.4375 -3.8125 C 17.59375 -4.195312 17.582031 -4.488281 17.40625 -4.6875 C 16.96875 -5.15625 16.59375 -5.507812 16.28125 -5.75 C 15.96875 -6 15.628906 -6.160156 15.265625 -6.234375 C 14.898438 -6.316406 14.570312 -6.316406 14.28125 -6.234375 C 13.988281 -6.160156 13.59375 -5.953125 13.09375 -5.609375 Z M 13.09375 -5.609375 "/></g></g></g><path fill="#faf8f3" d="M 267.085938 318.632812 C 267.386719 319.175781 267.632812 319.738281 267.824219 320.328125 C 268.015625 320.914062 268.148438 321.515625 268.226562 322.128906 C 268.300781 322.742188 268.316406 323.359375 268.273438 323.976562 C 268.230469 324.59375 268.128906 325.199219 267.96875 325.796875 C 267.808594 326.394531 267.589844 326.96875 267.320312 327.527344 C 267.046875 328.082031 266.722656 328.605469 266.351562 329.097656 C 265.976562 329.589844 265.558594 330.042969 265.101562 330.457031 C 264.640625 330.867188 264.144531 331.234375 263.613281 331.550781 C 260.699219 333.0625 257.746094 334.488281 254.746094 335.824219 C 251.75 337.160156 248.714844 338.40625 245.644531 339.5625 C 242.570312 340.71875 239.46875 341.78125 236.332031 342.75 C 233.199219 343.722656 230.035156 344.597656 226.851562 345.378906 C 223.664062 346.164062 220.453125 346.847656 217.226562 347.441406 C 214 348.03125 210.753906 348.523438 207.496094 348.921875 C 204.238281 349.320312 200.972656 349.621094 197.699219 349.824219 C 194.421875 350.027344 191.144531 350.128906 187.863281 350.136719 C 184.578125 350.144531 181.300781 350.054688 178.023438 349.867188 C 174.746094 349.679688 171.480469 349.390625 168.21875 349.007812 C 164.960938 348.625 161.714844 348.144531 158.484375 347.570312 C 155.253906 346.992188 152.042969 346.320312 148.851562 345.550781 C 145.660156 344.785156 142.496094 343.921875 139.359375 342.964844 C 136.21875 342.007812 133.109375 340.957031 130.035156 339.816406 C 126.957031 338.675781 123.917969 337.441406 120.914062 336.117188 C 117.910156 334.792969 114.949219 333.382812 112.03125 331.882812 C 111.496094 331.570312 111 331.207031 110.539062 330.796875 C 110.074219 330.386719 109.65625 329.933594 109.28125 329.445312 C 108.90625 328.953125 108.578125 328.429688 108.304688 327.875 C 108.03125 327.320312 107.8125 326.746094 107.648438 326.148438 C 107.484375 325.550781 107.382812 324.945312 107.335938 324.328125 C 107.289062 323.710938 107.304688 323.097656 107.375 322.484375 C 107.449219 321.867188 107.578125 321.265625 107.769531 320.679688 C 107.957031 320.089844 108.203125 319.523438 108.5 318.984375 L 118.25 302.449219 C 118.558594 301.878906 118.917969 301.347656 119.332031 300.851562 C 119.746094 300.355469 120.207031 299.90625 120.710938 299.503906 C 121.214844 299.101562 121.753906 298.753906 122.328125 298.460938 C 122.902344 298.167969 123.5 297.933594 124.121094 297.761719 C 124.746094 297.585938 125.378906 297.476562 126.019531 297.433594 C 126.664062 297.386719 127.308594 297.40625 127.945312 297.488281 C 128.585938 297.574219 129.210938 297.71875 129.820312 297.929688 C 130.433594 298.140625 131.015625 298.410156 131.570312 298.738281 C 135.929688 300.878906 140.394531 302.765625 144.96875 304.394531 C 149.542969 306.023438 154.195312 307.386719 158.925781 308.480469 C 163.65625 309.578125 168.433594 310.398438 173.257812 310.941406 C 178.082031 311.488281 182.921875 311.753906 187.777344 311.746094 C 192.632812 311.734375 197.472656 311.445312 202.292969 310.878906 C 207.117188 310.3125 211.890625 309.472656 216.617188 308.355469 C 221.339844 307.238281 225.988281 305.855469 230.554688 304.207031 C 235.121094 302.558594 239.578125 300.652344 243.925781 298.492188 C 244.480469 298.160156 245.0625 297.890625 245.671875 297.675781 C 246.28125 297.464844 246.90625 297.3125 247.542969 297.226562 C 248.183594 297.140625 248.824219 297.117188 249.46875 297.160156 C 250.113281 297.203125 250.746094 297.308594 251.371094 297.480469 C 251.992188 297.652344 252.589844 297.882812 253.167969 298.171875 C 253.742188 298.464844 254.285156 298.808594 254.789062 299.210938 C 255.296875 299.609375 255.757812 300.058594 256.171875 300.550781 C 256.589844 301.046875 256.953125 301.574219 257.261719 302.140625 Z M 267.085938 318.632812 " fill-opacity="1" fill-rule="nonzero"/><g fill="#98aa71" fill-opacity="1"><g transform="translate(118.219799, 322.497023)"><g><path d="M 14.109375 -13.859375 C 15.117188 -13.410156 15.566406 -12.941406 15.453125 -12.453125 L 13.90625 -5.0625 L 11.359375 4.5625 C 11.316406 4.726562 11.269531 4.867188 11.21875 4.984375 C 11.164062 5.109375 11.085938 5.195312 10.984375 5.25 C 10.878906 5.300781 10.613281 5.226562 10.1875 5.03125 C 8.894531 4.445312 8.328125 3.851562 8.484375 3.25 L 9.75 -1.59375 L 6.6875 -2.96875 L 3.96875 1.25 C 3.789062 1.53125 3.644531 1.707031 3.53125 1.78125 C 3.414062 1.851562 3.296875 1.867188 3.171875 1.828125 C 3.046875 1.796875 2.859375 1.722656 2.609375 1.609375 L 2 1.328125 C 1.476562 1.097656 1.171875 0.914062 1.078125 0.78125 C 0.804688 0.519531 0.679688 0.316406 0.703125 0.171875 C 0.710938 0.0859375 0.726562 0.0195312 0.75 -0.03125 C 0.78125 -0.09375 1.367188 -0.988281 2.515625 -2.71875 C 3.671875 -4.457031 5.050781 -6.515625 6.65625 -8.890625 C 8.269531 -11.265625 9.328125 -12.820312 9.828125 -13.5625 C 10.335938 -14.300781 10.617188 -14.71875 10.671875 -14.8125 C 10.878906 -15.125 12.023438 -14.804688 14.109375 -13.859375 Z M 12.171875 -11.296875 L 8.3125 -5.4375 L 10.46875 -4.453125 Z M 12.171875 -11.296875 "/></g></g></g><g fill="#98aa71" fill-opacity="1"><g transform="translate(138.271032, 330.87587)"><g><path d="M 1.1875 -0.265625 L 6.09375 -17.03125 C 7.738281 -16.820312 9.132812 -16.546875 10.28125 -16.203125 C 12.414062 -15.585938 13.769531 -14.757812 14.34375 -13.71875 C 14.925781 -12.675781 14.945312 -11.238281 14.40625 -9.40625 C 13.65625 -6.820312 12.4375 -5.304688 10.75 -4.859375 L 11.71875 2.546875 C 11.78125 2.984375 11.796875 3.257812 11.765625 3.375 C 11.734375 3.488281 11.695312 3.5625 11.65625 3.59375 C 11.550781 3.707031 11.269531 3.695312 10.8125 3.5625 C 9.320312 3.125 8.535156 2.570312 8.453125 1.90625 L 7.59375 -4.921875 C 7.1875 -5.015625 6.601562 -5.171875 5.84375 -5.390625 L 4.109375 0.5625 C 3.984375 0.988281 3.863281 1.242188 3.75 1.328125 C 3.632812 1.410156 3.351562 1.382812 2.90625 1.25 C 1.582031 0.863281 1.007812 0.359375 1.1875 -0.265625 Z M 7.140625 -8.453125 C 8.367188 -8.085938 9.25 -8.015625 9.78125 -8.234375 C 10.3125 -8.453125 10.753906 -9.164062 11.109375 -10.375 C 11.316406 -11.113281 11.363281 -11.734375 11.25 -12.234375 C 11.144531 -12.734375 10.941406 -13.03125 10.640625 -13.125 C 9.554688 -13.4375 8.890625 -13.601562 8.640625 -13.625 C 8.390625 -13.644531 8.226562 -13.523438 8.15625 -13.265625 L 6.875 -8.890625 C 6.8125 -8.691406 6.816406 -8.570312 6.890625 -8.53125 C 6.960938 -8.5 7.046875 -8.472656 7.140625 -8.453125 Z M 7.140625 -8.453125 "/></g></g></g><g fill="#98aa71" fill-opacity="1"><g transform="translate(159.130292, 336.324384)"><g><path d="M 1.140625 -0.421875 L 3.65625 -17.703125 C 5.3125 -17.734375 6.726562 -17.660156 7.90625 -17.484375 C 10.101562 -17.160156 11.5625 -16.523438 12.28125 -15.578125 C 13.007812 -14.628906 13.238281 -13.207031 12.96875 -11.3125 C 12.582031 -8.65625 11.582031 -6.992188 9.96875 -6.328125 L 11.96875 0.890625 C 12.082031 1.304688 12.128906 1.570312 12.109375 1.6875 C 12.097656 1.8125 12.070312 1.890625 12.03125 1.921875 C 11.945312 2.054688 11.664062 2.09375 11.1875 2.03125 C 9.65625 1.800781 8.800781 1.359375 8.625 0.703125 L 6.828125 -5.9375 C 6.421875 -5.957031 5.828125 -6.023438 5.046875 -6.140625 L 4.15625 -0.03125 C 4.09375 0.414062 4.003906 0.6875 3.890625 0.78125 C 3.785156 0.882812 3.503906 0.90625 3.046875 0.84375 C 1.679688 0.644531 1.046875 0.222656 1.140625 -0.421875 Z M 5.890625 -9.359375 C 7.160156 -9.171875 8.039062 -9.222656 8.53125 -9.515625 C 9.03125 -9.816406 9.367188 -10.585938 9.546875 -11.828125 C 9.660156 -12.597656 9.625 -13.222656 9.4375 -13.703125 C 9.257812 -14.179688 9.019531 -14.441406 8.71875 -14.484375 C 7.59375 -14.640625 6.90625 -14.710938 6.65625 -14.703125 C 6.40625 -14.691406 6.257812 -14.550781 6.21875 -14.28125 L 5.5625 -9.765625 C 5.53125 -9.554688 5.550781 -9.4375 5.625 -9.40625 C 5.707031 -9.382812 5.796875 -9.367188 5.890625 -9.359375 Z M 5.890625 -9.359375 "/></g></g></g><g fill="#98aa71" fill-opacity="1"><g transform="translate(180.550342, 338.813361)"><g><path d="M 7.21875 -18.421875 C 8.320312 -18.421875 8.921875 -18.175781 9.015625 -17.6875 L 10.609375 -10.3125 L 12.234375 -0.484375 C 12.265625 -0.316406 12.28125 -0.164062 12.28125 -0.03125 C 12.28125 0.101562 12.238281 0.210938 12.15625 0.296875 C 12.082031 0.390625 11.816406 0.4375 11.359375 0.4375 C 9.929688 0.425781 9.171875 0.113281 9.078125 -0.5 L 8.25 -5.4375 L 4.890625 -5.453125 L 4.125 -0.484375 C 4.082031 -0.148438 4.023438 0.0703125 3.953125 0.1875 C 3.878906 0.300781 3.773438 0.363281 3.640625 0.375 C 3.515625 0.394531 3.3125 0.40625 3.03125 0.40625 L 2.359375 0.40625 C 1.796875 0.394531 1.441406 0.351562 1.296875 0.28125 C 0.941406 0.15625 0.742188 0.015625 0.703125 -0.140625 C 0.679688 -0.222656 0.671875 -0.296875 0.671875 -0.359375 C 0.671875 -0.421875 0.84375 -1.472656 1.1875 -3.515625 C 1.53125 -5.566406 1.945312 -8.003906 2.4375 -10.828125 C 2.9375 -13.660156 3.265625 -15.515625 3.421875 -16.390625 C 3.578125 -17.273438 3.664062 -17.773438 3.6875 -17.890625 C 3.75 -18.253906 4.925781 -18.429688 7.21875 -18.421875 Z M 6.484375 -15.296875 L 5.359375 -8.359375 L 7.734375 -8.34375 Z M 6.484375 -15.296875 "/></g></g></g><g fill="#98aa71" fill-opacity="1"><g transform="translate(202.306681, 338.28546)"><g><path d="M -2 -17.765625 C -2.050781 -18.128906 -1.550781 -18.382812 -0.5 -18.53125 C 0.539062 -18.6875 1.21875 -18.488281 1.53125 -17.9375 L 5.578125 -12.734375 L 7.609375 -18.859375 C 7.691406 -19.203125 7.835938 -19.441406 8.046875 -19.578125 C 8.253906 -19.722656 8.597656 -19.828125 9.078125 -19.890625 C 10.148438 -20.046875 10.710938 -19.925781 10.765625 -19.53125 C 10.773438 -19.4375 10.765625 -19.335938 10.734375 -19.234375 L 7.390625 -9.5 L 8.5 -1.703125 C 8.53125 -1.429688 8.535156 -1.25 8.515625 -1.15625 C 8.503906 -0.914062 8.222656 -0.757812 7.671875 -0.6875 C 6.441406 -0.507812 5.78125 -0.726562 5.6875 -1.34375 L 4.59375 -9.109375 L -1.859375 -17.46875 C -1.941406 -17.570312 -1.988281 -17.671875 -2 -17.765625 Z M -2 -17.765625 "/></g></g></g><g fill="#98aa71" fill-opacity="1"><g transform="translate(224.595607, 334.454448)"><g><path d="M 0.859375 -20.046875 L -0.359375 -20.21875 L -0.75 -21.484375 L -0.265625 -24.734375 L 0.5 -25.75 L 3.375 -25.09375 Z M 1.703125 -19.71875 C 2.753906 -20.03125 3.398438 -19.960938 3.640625 -19.515625 L 7.265625 -12.890625 L 11.59375 -3.9375 C 11.675781 -3.78125 11.734375 -3.632812 11.765625 -3.5 C 11.804688 -3.375 11.800781 -3.257812 11.75 -3.15625 C 11.695312 -3.050781 11.453125 -2.929688 11.015625 -2.796875 C 9.640625 -2.398438 8.820312 -2.488281 8.5625 -3.0625 L 6.375 -7.5625 L 3.15625 -6.609375 L 3.8125 -1.640625 C 3.875 -1.304688 3.882812 -1.070312 3.84375 -0.9375 C 3.800781 -0.8125 3.71875 -0.722656 3.59375 -0.671875 C 3.476562 -0.617188 3.285156 -0.550781 3.015625 -0.46875 L 2.375 -0.28125 C 1.832031 -0.125 1.484375 -0.0625 1.328125 -0.09375 C 0.953125 -0.113281 0.71875 -0.195312 0.625 -0.34375 C 0.582031 -0.40625 0.550781 -0.46875 0.53125 -0.53125 C 0.519531 -0.59375 0.390625 -1.648438 0.140625 -3.703125 C -0.0976562 -5.765625 -0.378906 -8.222656 -0.703125 -11.078125 C -1.035156 -13.929688 -1.253906 -15.800781 -1.359375 -16.6875 C -1.460938 -17.582031 -1.519531 -18.085938 -1.53125 -18.203125 C -1.582031 -18.578125 -0.503906 -19.082031 1.703125 -19.71875 Z M 1.90625 -16.5 L 2.765625 -9.53125 L 5.046875 -10.203125 Z M 1.90625 -16.5 "/></g></g></g><g fill="#98aa71" fill-opacity="1"><g transform="translate(245.028413, 327.866993)"><g><path d="M 0.75 -0.96875 L -6.234375 -16.421875 C -6.484375 -16.960938 -6.082031 -17.472656 -5.03125 -17.953125 C -4.8125 -18.054688 -4.632812 -18.128906 -4.5 -18.171875 C -4.363281 -18.210938 -4.171875 -18.210938 -3.921875 -18.171875 C -3.679688 -18.128906 -3.4375 -18.023438 -3.1875 -17.859375 L 4.859375 -10.4375 L 0.59375 -19.53125 C 0.351562 -20.0625 0.753906 -20.566406 1.796875 -21.046875 C 2.242188 -21.242188 2.566406 -21.328125 2.765625 -21.296875 C 2.972656 -21.265625 3.160156 -21.085938 3.328125 -20.765625 L 6.65625 -14.34375 L 10.703125 -5.375 C 10.816406 -5.125 10.882812 -4.957031 10.90625 -4.875 C 10.945312 -4.632812 10.707031 -4.398438 10.1875 -4.171875 C 9.238281 -3.742188 8.550781 -3.757812 8.125 -4.21875 L -0.28125 -11.359375 L 3.828125 -2.3125 C 3.953125 -2.039062 4.023438 -1.859375 4.046875 -1.765625 C 4.078125 -1.535156 3.835938 -1.304688 3.328125 -1.078125 C 1.867188 -0.410156 1.007812 -0.375 0.75 -0.96875 Z M 0.75 -0.96875 "/></g></g></g><g clip-path="url(#dabff0c7aa)"><path fill="#98aa71" d="M 233.183594 228.511719 C 231.15625 232.714844 227.78125 236.328125 223.9375 239.066406 C 218.824219 242.703125 212.769531 244.867188 207.898438 244.867188 C 199.117188 244.867188 196.605469 243.09375 192.3125 240.066406 L 191.964844 239.824219 L 190.628906 238.882812 L 190.628906 102.453125 L 192.777344 101.726562 C 194.1875 101.246094 195.652344 100.878906 197.152344 100.636719 C 198.652344 100.394531 200.15625 100.265625 201.65625 100.265625 C 207.183594 100.265625 212.34375 101.890625 216.671875 104.6875 C 220.570312 107.203125 223.796875 110.664062 226.023438 114.75 C 233.25 115.03125 239.773438 118.070312 244.550781 122.855469 C 249.574219 127.878906 252.675781 134.8125 252.675781 142.472656 L 252.675781 142.539062 C 257.085938 144.613281 260.863281 147.894531 263.644531 151.867188 C 266.863281 156.46875 268.757812 162.007812 268.757812 167.695312 C 268.757812 173.191406 267.300781 178.09375 264.769531 182.222656 C 262.65625 185.671875 259.800781 188.554688 256.429688 190.773438 C 259.15625 196.164062 259.929688 201.867188 259.125 207.15625 C 258.585938 210.738281 257.3125 214.140625 255.429688 217.136719 C 253.546875 220.136719 251.042969 222.730469 248.050781 224.6875 C 243.910156 227.390625 238.851562 228.863281 233.203125 228.519531 Z M 139.746094 191.828125 C 138.3125 191.367188 136.832031 191.117188 135.300781 191.117188 C 131.484375 191.117188 127.898438 192.660156 124.804688 195.355469 C 126.132812 196.515625 127.546875 197.457031 129.03125 198.15625 C 131.003906 199.085938 133.109375 199.589844 135.296875 199.589844 C 138.601562 199.589844 141.726562 198.433594 144.507812 196.382812 C 146.984375 198.296875 149.65625 199.765625 152.402344 200.894531 C 150.433594 202.1875 146.355469 207.773438 131.828125 212.480469 C 137.039062 212.558594 142.632812 211.898438 147.976562 210.015625 C 152.148438 208.546875 156.171875 206.328125 159.746094 203.148438 C 164.511719 204.179688 169.207031 204.476562 173.273438 204.53125 C 175.011719 204.554688 176.609375 204.53125 178.035156 204.507812 L 178.035156 210.324219 C 178.035156 223.792969 162.957031 228.597656 153.105469 224.855469 C 161 233.304688 171.058594 233.457031 178.035156 225.289062 L 178.035156 235.617188 C 175.308594 237.492188 173.140625 238.570312 167.042969 238.570312 C 163.394531 238.570312 158.710938 236.851562 154.636719 233.945312 C 151.066406 231.402344 148.042969 228.003906 146.726562 224.128906 L 145.875 221.636719 L 143.289062 222.03125 C 138.257812 222.796875 133.820312 221.703125 130.316406 219.421875 C 128.101562 217.976562 126.242188 216.039062 124.828125 213.792969 C 123.414062 211.539062 122.453125 208.957031 122.039062 206.214844 C 121.3125 201.410156 122.277344 196.144531 125.421875 191.324219 L 127.328125 188.402344 L 124.21875 186.820312 C 120.613281 184.980469 117.601562 182.300781 115.542969 178.941406 C 113.605469 175.777344 112.488281 171.984375 112.488281 167.683594 C 112.488281 163.289062 113.953125 159 116.449219 155.4375 C 118.949219 151.859375 122.476562 149.011719 126.582031 147.511719 L 128.847656 146.6875 L 128.640625 144.3125 C 128.605469 143.875 128.582031 143.5625 128.574219 143.398438 L 128.574219 143.386719 C 128.566406 143.21875 128.5625 142.914062 128.5625 142.464844 C 128.5625 136.539062 130.964844 131.175781 134.847656 127.289062 C 138.726562 123.410156 144.09375 121.003906 150.023438 121.003906 C 150.515625 121.003906 150.1875 120.992188 150.363281 121 L 152.875 121.066406 L 153.730469 119.164062 C 155.445312 115.382812 158.214844 112.183594 161.667969 109.953125 C 165.015625 107.792969 169.003906 106.539062 173.296875 106.539062 C 174.523438 106.539062 175.691406 106.632812 176.796875 106.8125 C 177.214844 106.878906 177.628906 106.960938 178.035156 107.054688 L 178.035156 137.144531 C 174.457031 133.003906 165.039062 127.234375 166.078125 111.242188 C 163.453125 115.078125 163.15625 119.625 164.171875 124.179688 C 163.589844 123.9375 162.980469 123.730469 162.363281 123.5625 C 160.25 122.996094 158.082031 122.9375 155.9375 123.320312 C 154.320312 123.609375 152.707031 124.15625 151.128906 124.929688 C 153.417969 128.335938 156.476562 130.75 160.167969 131.734375 C 162.28125 132.300781 164.449219 132.359375 166.59375 131.972656 C 166.738281 131.949219 166.886719 131.917969 167.03125 131.886719 C 168.863281 135.5 171.214844 138.832031 173.484375 141.457031 C 175.21875 143.460938 176.875 145.378906 178.027344 147.996094 L 178.027344 198.242188 C 176.613281 198.265625 175.023438 198.289062 173.339844 198.265625 L 172.945312 198.257812 C 169.289062 191.859375 168.933594 182.816406 168.566406 173.476562 C 168.476562 171.144531 168.28125 168.765625 167.964844 166.371094 C 168.828125 165.960938 169.640625 165.492188 170.40625 164.964844 C 172.199219 163.71875 173.6875 162.144531 174.78125 160.25 C 176.691406 156.941406 177.148438 153.066406 176.359375 149.042969 C 174.695312 149.613281 173.171875 150.367188 171.816406 151.300781 C 170.023438 152.546875 168.535156 154.117188 167.445312 156.011719 C 167.039062 156.722656 166.691406 157.457031 166.410156 158.21875 C 163.230469 145.75 156.167969 133.871094 142.457031 127.375 C 144.199219 129.554688 149.640625 133.277344 154.394531 141.738281 C 152.503906 140.898438 150.515625 140.449219 148.449219 140.449219 C 146.261719 140.449219 144.15625 140.953125 142.183594 141.882812 C 140.695312 142.582031 139.28125 143.527344 137.957031 144.679688 C 141.046875 147.378906 144.636719 148.921875 148.457031 148.921875 C 150.640625 148.921875 152.75 148.417969 154.722656 147.488281 C 155.394531 147.171875 156.058594 146.800781 156.703125 146.382812 C 159.566406 152.96875 161.839844 161.789062 162.308594 173.714844 C 162.363281 175.171875 162.421875 176.621094 162.488281 178.054688 C 162.214844 177.726562 161.929688 177.414062 161.625 177.113281 C 160.078125 175.566406 158.230469 174.429688 156.179688 173.695312 C 154.632812 173.144531 152.96875 172.808594 151.207031 172.6875 C 151.484375 176.78125 152.929688 180.40625 155.632812 183.109375 C 157.179688 184.65625 159.027344 185.792969 161.082031 186.527344 C 161.765625 186.777344 162.484375 186.976562 163.210938 187.132812 C 163.691406 190.894531 164.460938 194.46875 165.761719 197.753906 C 134.648438 193.730469 132.097656 166.835938 130.230469 158.222656 C 130.160156 163.464844 130.523438 168.109375 131.238281 172.238281 C 130.078125 170.734375 128.664062 169.476562 127.011719 168.523438 C 125.117188 167.429688 123.042969 166.808594 120.867188 166.628906 C 119.230469 166.492188 117.535156 166.601562 115.804688 166.9375 C 117.132812 170.816406 119.464844 173.945312 122.773438 175.859375 C 124.667969 176.949219 126.746094 177.570312 128.921875 177.753906 C 130.074219 177.847656 131.265625 177.824219 132.464844 177.679688 C 134.140625 183.589844 136.664062 188.210938 139.71875 191.808594 Z M 145.296875 171.832031 C 147.351562 171.089844 149.195312 169.957031 150.746094 168.414062 C 153.445312 165.710938 154.890625 162.085938 155.171875 157.992188 C 153.417969 158.113281 151.746094 158.449219 150.199219 159 C 148.144531 159.742188 146.300781 160.878906 144.75 162.417969 C 142.050781 165.121094 140.605469 168.746094 140.324219 172.839844 C 142.078125 172.71875 143.75 172.382812 145.296875 171.832031 Z M 141.769531 228.511719 C 143.796875 232.714844 147.175781 236.328125 151.019531 239.066406 C 156.132812 242.703125 162.183594 244.867188 167.054688 244.867188 C 175.835938 244.867188 178.351562 243.09375 182.644531 240.066406 L 182.988281 239.824219 L 184.324219 238.882812 L 184.324219 102.453125 L 182.175781 101.726562 C 180.765625 101.246094 179.304688 100.878906 177.804688 100.636719 C 176.304688 100.394531 174.796875 100.265625 173.296875 100.265625 C 167.773438 100.265625 162.609375 101.890625 158.28125 104.6875 C 154.382812 107.203125 151.15625 110.664062 148.929688 114.75 C 141.703125 115.03125 135.179688 118.070312 130.402344 122.855469 C 125.378906 127.878906 122.277344 134.8125 122.277344 142.472656 L 122.277344 142.539062 C 117.867188 144.613281 114.089844 147.894531 111.308594 151.867188 C 108.089844 156.46875 106.195312 162.007812 106.195312 167.695312 C 106.195312 173.191406 107.65625 178.09375 110.1875 182.222656 C 112.300781 185.671875 115.152344 188.554688 118.523438 190.773438 C 115.796875 196.164062 115.027344 201.867188 115.828125 207.15625 C 116.367188 210.738281 117.644531 214.140625 119.527344 217.136719 C 121.410156 220.136719 123.910156 222.730469 126.902344 224.6875 C 131.046875 227.390625 136.105469 228.863281 141.75 228.519531 Z M 235.207031 191.828125 C 236.640625 191.367188 238.128906 191.117188 239.652344 191.117188 C 243.472656 191.117188 247.054688 192.660156 250.152344 195.355469 C 248.820312 196.515625 247.40625 197.457031 245.925781 198.15625 C 243.953125 199.085938 241.84375 199.589844 239.65625 199.589844 C 236.355469 199.589844 233.226562 198.433594 230.445312 196.382812 C 227.96875 198.296875 225.296875 199.765625 222.550781 200.894531 C 224.519531 202.1875 228.601562 207.773438 243.125 212.480469 C 237.914062 212.558594 232.324219 211.898438 226.980469 210.015625 C 222.808594 208.546875 218.78125 206.328125 215.210938 203.148438 C 210.441406 204.179688 205.75 204.476562 201.679688 204.53125 C 199.945312 204.554688 198.347656 204.53125 196.921875 204.507812 L 196.921875 210.324219 C 196.921875 223.792969 211.996094 228.597656 221.847656 224.855469 C 213.953125 233.304688 203.898438 233.457031 196.921875 225.289062 L 196.921875 235.617188 C 199.644531 237.492188 201.8125 238.570312 207.910156 238.570312 C 211.5625 238.570312 216.242188 236.851562 220.316406 233.945312 C 223.886719 231.402344 226.910156 228.003906 228.230469 224.128906 L 229.078125 221.636719 L 231.667969 222.03125 C 236.695312 222.796875 241.132812 221.703125 244.636719 219.421875 C 246.855469 217.976562 248.710938 216.039062 250.128906 213.792969 C 251.542969 211.539062 252.5 208.957031 252.914062 206.214844 C 253.644531 201.410156 252.675781 196.144531 249.53125 191.324219 L 247.625 188.402344 L 250.734375 186.820312 C 254.339844 184.980469 257.351562 182.300781 259.410156 178.941406 C 261.347656 175.777344 262.464844 171.984375 262.464844 167.683594 C 262.464844 163.289062 261.003906 159 258.507812 155.4375 C 256.003906 151.859375 252.476562 149.011719 248.371094 147.511719 L 246.105469 146.6875 L 246.3125 144.3125 C 246.351562 143.875 246.375 143.5625 246.378906 143.398438 L 246.378906 143.386719 C 246.386719 143.21875 246.390625 142.914062 246.390625 142.464844 C 246.390625 136.539062 243.988281 131.175781 240.109375 127.289062 C 236.226562 123.410156 230.859375 121.003906 224.933594 121.003906 C 224.441406 121.003906 224.769531 120.992188 224.59375 121 L 222.078125 121.066406 L 221.222656 119.164062 C 219.507812 115.382812 216.742188 112.183594 213.285156 109.953125 C 209.9375 107.792969 205.949219 106.539062 201.65625 106.539062 C 200.429688 106.539062 199.265625 106.632812 198.160156 106.8125 C 197.738281 106.878906 197.328125 106.960938 196.921875 107.054688 L 196.921875 137.144531 C 200.496094 133.003906 209.914062 127.234375 208.875 111.242188 C 211.5 115.078125 211.796875 119.625 210.785156 124.179688 C 211.367188 123.9375 211.972656 123.726562 212.59375 123.5625 C 214.707031 122.996094 216.875 122.9375 219.019531 123.320312 C 220.632812 123.609375 222.25 124.15625 223.828125 124.929688 C 221.539062 128.335938 218.472656 130.75 214.785156 131.734375 C 212.671875 132.300781 210.503906 132.359375 208.359375 131.976562 C 208.214844 131.953125 208.070312 131.921875 207.921875 131.894531 C 206.089844 135.507812 203.738281 138.839844 201.46875 141.464844 C 199.738281 143.46875 198.078125 145.386719 196.925781 148.003906 L 196.925781 198.246094 C 198.339844 198.269531 199.933594 198.296875 201.613281 198.269531 L 202.007812 198.265625 C 205.664062 191.863281 206.023438 182.824219 206.386719 173.484375 C 206.476562 171.152344 206.671875 168.769531 206.988281 166.378906 C 206.125 165.964844 205.3125 165.5 204.546875 164.96875 C 202.753906 163.726562 201.269531 162.152344 200.175781 160.257812 C 198.261719 156.949219 197.804688 153.074219 198.597656 149.046875 C 200.261719 149.617188 201.785156 150.371094 203.136719 151.308594 C 204.929688 152.550781 206.417969 154.125 207.511719 156.019531 C 207.921875 156.730469 208.261719 157.464844 208.542969 158.222656 C 211.726562 145.757812 218.785156 133.878906 232.5 127.382812 C 230.753906 129.5625 225.316406 133.285156 220.558594 141.75 C 222.449219 140.910156 224.441406 140.460938 226.503906 140.460938 C 228.691406 140.460938 230.796875 140.964844 232.773438 141.894531 C 234.257812 142.59375 235.675781 143.539062 237 144.695312 C 233.90625 147.390625 230.320312 148.933594 226.5 148.933594 C 224.308594 148.933594 222.207031 148.429688 220.230469 147.5 C 219.558594 147.183594 218.894531 146.8125 218.253906 146.394531 C 215.386719 152.984375 213.117188 161.800781 212.648438 173.726562 C 212.59375 175.183594 212.53125 176.636719 212.464844 178.066406 C 212.738281 177.742188 213.023438 177.425781 213.328125 177.125 C 214.875 175.578125 216.722656 174.441406 218.773438 173.707031 C 220.324219 173.15625 221.988281 172.820312 223.75 172.699219 C 223.46875 176.792969 222.023438 180.417969 219.320312 183.121094 C 217.773438 184.667969 215.925781 185.804688 213.875 186.539062 C 213.1875 186.789062 212.472656 186.988281 211.742188 187.152344 C 211.261719 190.910156 210.492188 194.488281 209.191406 197.773438 C 240.308594 193.746094 242.859375 166.851562 244.722656 158.242188 C 244.796875 163.480469 244.429688 168.128906 243.714844 172.257812 C 244.875 170.75 246.289062 169.492188 247.941406 168.539062 C 249.835938 167.449219 251.914062 166.828125 254.085938 166.644531 C 255.726562 166.511719 257.421875 166.621094 259.152344 166.957031 C 257.820312 170.835938 255.488281 173.964844 252.179688 175.875 C 250.285156 176.96875 248.207031 177.589844 246.035156 177.769531 C 244.878906 177.867188 243.691406 177.84375 242.488281 177.699219 C 240.8125 183.605469 238.292969 188.226562 235.238281 191.828125 Z M 229.65625 171.832031 C 227.605469 171.089844 225.757812 169.957031 224.210938 168.414062 C 221.507812 165.710938 220.0625 162.085938 219.78125 157.992188 C 221.539062 158.113281 223.207031 158.449219 224.757812 159 C 226.808594 159.742188 228.65625 160.878906 230.203125 162.417969 C 232.90625 165.121094 234.351562 168.746094 234.628906 172.839844 C 232.875 172.71875 231.207031 172.382812 229.65625 171.832031 Z M 229.65625 171.832031 " fill-opacity="1" fill-rule="nonzero"/></g><g clip-path="url(#4e91f5abbc)"><path fill="#98aa71" d="M 188.496094 263.585938 C 191.832031 255.296875 200.324219 250.851562 206.640625 257.074219 C 218.375 268.617188 188.96875 289.652344 188.96875 289.652344 C 174.015625 277.410156 163.1875 266.914062 171.976562 257.546875 C 176.90625 252.285156 185.046875 255.671875 188.496094 263.585938 Z M 188.496094 263.585938 " fill-opacity="1" fill-rule="nonzero"/></g></svg>